<svg width="108" height="21" viewBox="0 0 108 21" fill="none" xmlns="http://www.w3.org/2000/svg">
<g clip-path="url(#clip0_42_4492)">
<path fill-rule="evenodd" clip-rule="evenodd" d="M-0.00195312 0L9.38207 9.56428L-0.00195312 19.1283V0Z" fill="#80BA42"/>
<path fill-rule="evenodd" clip-rule="evenodd" d="M18.7695 19.1283L9.3855 9.56405L18.7695 0V19.1283Z" fill="#0EA9B8"/>
<path fill-rule="evenodd" clip-rule="evenodd" d="M-0.00195312 19.1278L9.38207 9.56348L18.7659 19.1278H-0.00195312Z" fill="#0C7D3E"/>
<path d="M25.8086 2.39062H29.7699L33.6711 12.925L37.4514 2.39062H41.3322V16.737H38.4567V7.12508L34.7971 16.737H32.3439L28.684 7.12508V16.737H25.8086V2.39062Z" fill="#353433"/>
<path d="M50.6286 10.2405C50.4276 8.94936 49.5629 8.23204 48.276 8.23204C47.0494 8.23204 46.1244 8.99052 45.9635 10.2405H50.6286ZM42.9473 11.4907C42.9473 8.21157 45.0587 6.08008 48.2559 6.08008C51.3525 6.08008 53.4438 8.04759 53.484 11.1423C53.484 11.4497 53.4639 11.7979 53.4037 12.1261H45.9033V12.2696C45.9635 13.7655 46.9085 14.6675 48.3362 14.6675C49.4823 14.6675 50.2868 14.1551 50.528 13.1714H53.3231C53.0013 15.2208 51.2119 16.8606 48.457 16.8606C45.0185 16.8606 42.9473 14.7493 42.9473 11.4907Z" fill="#353433"/>
<path d="M61.1327 6.20312V8.82633H60.0065C58.3175 8.82633 57.6741 9.97395 57.6741 11.5726V16.7373H54.8386V6.20312H57.4126L57.6741 7.78105C58.2371 6.83857 59.0413 6.20312 60.65 6.20312H61.1327Z" fill="#353433"/>
<path d="M69.5649 11.4088C69.5649 9.64617 68.5996 8.39598 67.0512 8.39598C65.503 8.39598 64.5176 9.62548 64.5176 11.3883C64.5176 13.1509 65.503 14.3597 67.0512 14.3597C68.5996 14.3597 69.5649 13.1509 69.5649 11.4088ZM69.8664 6.20308H72.3601V16.43C72.3601 19.0325 70.7916 20.9591 66.8301 20.9591C63.9546 20.9591 61.984 19.6268 61.8434 17.188H64.6986C64.9601 18.1924 65.7442 18.766 67.0512 18.766C68.64 18.766 69.585 17.967 69.585 16.3272V15.2205C68.9013 16.1018 67.8757 16.6759 66.428 16.6759C63.6529 16.6963 61.6221 14.6263 61.6221 11.3676C61.6221 8.15012 63.6529 6.05957 66.4079 6.05957C67.8958 6.05957 68.9415 6.73573 69.6252 7.65796L69.8664 6.20308Z" fill="#353433"/>
<path d="M80.6513 12.1875H78.58C77.3936 12.1875 76.7101 12.6792 76.7101 13.5605C76.7101 14.2986 77.2932 14.7698 78.2382 14.7698C79.7263 14.7698 80.6312 13.8273 80.6513 12.3925V12.1875ZM84.4316 14.2986V16.7373H82.9838C81.516 16.7373 81.0534 16.0202 81.0735 15.0159C80.3496 16.184 79.3039 16.8606 77.6953 16.8606C75.4631 16.8606 73.8545 15.7744 73.8545 13.7655C73.8545 11.5316 75.5035 10.261 78.6004 10.261H80.6513V9.74878C80.6513 8.80608 79.9877 8.1911 78.8014 8.1911C77.6953 8.1911 76.9513 8.70351 76.8306 9.48246H74.0959C74.2972 7.43262 76.1471 6.08008 78.8817 6.08008C81.7773 6.08008 83.4464 7.3919 83.4464 9.91276V13.6429C83.4464 14.196 83.6675 14.2986 84.1098 14.2986H84.4316Z" fill="#353433"/>
<path d="M92.9712 11.4904C92.9712 9.68687 92.0059 8.43668 90.4575 8.43668C88.9093 8.43668 87.9239 9.6664 87.9239 11.4699C87.9239 13.2735 88.9093 14.5032 90.4575 14.5032C92.0059 14.5032 92.9712 13.2735 92.9712 11.4904ZM92.9308 2.39062H95.7663V16.737H93.2927L93.0114 15.2817C92.3276 16.1835 91.3221 16.8601 89.8342 16.8601C87.0592 16.8601 85.0283 14.79 85.0283 11.4495C85.0283 8.19082 87.0592 6.0798 89.8141 6.0798C91.2418 6.0798 92.2674 6.65384 92.9308 7.51444V2.39062Z" fill="#353433"/>
<path d="M105.117 11.4702C105.117 9.68715 104.132 8.43696 102.543 8.43696C100.955 8.43696 99.9893 9.68715 99.9893 11.4702C99.9893 13.2533 100.955 14.5035 102.543 14.5035C104.132 14.5035 105.117 13.2533 105.117 11.4702ZM97.0938 11.4702C97.0938 8.23204 99.2455 6.08008 102.543 6.08008C105.841 6.08008 107.992 8.23204 107.992 11.4702C107.992 14.7289 105.841 16.8604 102.543 16.8604C99.2455 16.8604 97.0938 14.7084 97.0938 11.4702Z" fill="#353433"/>
</g>
<defs>
<clipPath id="clip0_42_4492">
<rect width="108" height="21" fill="white"/>
</clipPath>
</defs>
</svg>
