<svg width="168" height="169" viewBox="0 0 168 169" fill="none" xmlns="http://www.w3.org/2000/svg">
<mask id="mask0_42_3641" style="mask-type:alpha" maskUnits="userSpaceOnUse" x="0" y="0" width="168" height="169">
<rect width="168" height="169" fill="#D9D9D9"/>
</mask>
<g mask="url(#mask0_42_3641)">
<circle cx="61.5" cy="187.5" r="52.5" fill="#84D3C5"/>
<path d="M90.9903 42.0375C108.725 37.9118 127.821 40.1711 144.112 48.4857C152.919 52.9062 160.889 59.0369 167.578 66.3842V72.9356C161.296 65.0518 153.466 58.4727 144.726 53.6517C128.847 44.7906 109.827 42.1534 92.198 46.186C76.9478 49.5965 62.8291 58.0294 52.3334 69.8753C42.552 80.8245 35.8854 94.6829 33.4701 109.337C31.693 119.914 32.0636 130.865 34.5477 141.293C37.0243 151.668 41.607 161.517 47.9348 170H42.7508C40.7135 167.106 38.934 164.023 37.309 160.869C29.3563 145.424 26.4771 127.329 29.0887 110.078C31.5482 93.3681 39.231 77.5324 50.684 65.4019C61.5086 53.7928 75.7058 45.5336 90.9903 42.0375Z" fill="white"/>
<path d="M143.525 99.2193C144.11 98.4964 144.976 97.8339 145.946 98.1211C147.504 98.3931 148.135 100.657 146.954 101.746C132.387 116.687 117.831 131.639 103.261 146.578C102.544 147.414 101.194 147.512 100.386 146.767C91.5475 137.701 82.7184 128.629 73.8771 119.569C73.1505 118.964 72.6449 117.947 72.9959 116.989C73.3862 115.596 75.2983 115.035 76.3317 116.037C84.7999 124.725 93.2632 133.417 101.736 142.102C115.666 127.808 129.596 113.513 143.525 99.2193Z" fill="white"/>
</g>
</svg>
