<svg width="104" height="21" viewBox="0 0 104 21" fill="none" xmlns="http://www.w3.org/2000/svg">
<path d="M4.72429 1.03831C7.04517 -0.216974 9.92936 -0.334861 12.3572 0.689013C15.106 1.82422 17.1889 4.41775 17.678 7.35401C18.1671 10.0152 17.3396 12.8292 15.5624 14.8551C16.6759 15.9554 17.7872 17.0579 18.8854 18.1735C19.464 18.7127 19.4574 19.6951 18.94 20.2736C18.3679 20.9809 17.154 20.9765 16.5711 20.2845C15.4008 19.1231 14.2458 17.9464 13.0712 16.7894C11.1651 17.7849 8.90756 18.049 6.81592 17.5644C4.36404 16.9989 2.20472 15.318 1.03882 13.089C-0.251526 10.692 -0.347593 7.69239 0.79429 5.21894C1.59121 3.43972 3.00164 1.94866 4.72429 1.03831ZM8.02113 2.62324C5.01031 3.00965 2.53659 5.7931 2.56716 8.83852C2.46891 11.8839 4.89459 14.7307 7.90104 15.163C10.8507 15.7065 13.9751 13.7942 14.903 10.9561C15.5798 9.0874 15.2108 6.97634 14.1628 5.31937C12.6804 7.6007 11.3005 9.94972 9.82019 12.2311C9.42937 12.9035 8.38137 12.9558 7.90759 12.3533C7.13906 11.432 6.46659 10.4322 5.71552 9.49782C5.38802 9.04591 4.91861 8.56563 5.06052 7.95655C5.15877 7.0462 6.43384 6.62923 7.07356 7.25796C7.68052 7.91944 8.15868 8.68789 8.72198 9.38648C9.92063 7.44134 11.1346 5.50493 12.3463 3.56634C11.0581 2.7957 9.51889 2.37873 8.02113 2.62324Z" fill="#FF7B01"/>
<path d="M82.8263 2.91779C82.8198 2.23666 83.1669 1.40708 83.9289 1.32413C84.776 1.07962 85.7673 1.80877 85.6538 2.71694C85.6559 5.58335 85.6428 8.44758 85.6559 11.314C87.2847 10.17 88.7584 8.81434 90.3981 7.68786C91.2758 7.11807 92.4505 7.9673 92.3893 8.95624C92.3151 9.3492 92.1492 9.74216 91.8064 9.97356C90.754 10.7857 89.6798 11.5716 88.6405 12.399C89.7846 14.0079 91.0378 15.5405 92.2081 17.1298C92.5793 17.5969 92.6601 18.2715 92.3151 18.778C91.8369 19.5465 90.5728 19.5508 90.0794 18.7976C88.8785 17.1472 87.6078 15.547 86.4485 13.866C86.1777 14.0625 85.9092 14.259 85.6428 14.4576C85.6297 15.7719 85.7083 17.0905 85.6144 18.4025C85.3284 19.4962 83.68 19.6949 83.0752 18.7846C82.822 18.2737 82.8154 17.6865 82.8132 17.1298C82.8329 12.3924 82.8067 7.65511 82.8263 2.91779Z" fill="#00ABD7"/>
<path d="M23.5903 3.58112C23.5095 2.80175 24.1601 2.04422 24.9505 2.05076C25.7911 1.98309 26.6077 2.73408 26.5312 3.59203C26.5531 5.43894 26.5312 7.28365 26.5356 9.13056C28.8936 9.17422 31.2538 9.13274 33.6118 9.15457C33.6707 7.22034 33.5987 5.28394 33.6445 3.35189C33.6555 2.56379 34.4524 1.93943 35.2209 2.05732C35.9873 2.10534 36.6423 2.82358 36.5746 3.60077C36.5877 8.32499 36.5833 13.0536 36.5768 17.78C36.7012 18.8213 35.5615 19.6531 34.5965 19.2776C34.0659 19.0964 33.6205 18.5899 33.6402 18.0092C33.6162 15.968 33.6402 13.9268 33.6358 11.8878C31.2691 11.8856 28.9023 11.8834 26.5356 11.8878C26.5225 13.9225 26.5727 15.9593 26.516 17.9939C26.5247 18.9567 25.4287 19.6094 24.5597 19.2798C24.0226 19.0986 23.5706 18.5877 23.5968 18.0005C23.5794 13.1955 23.5947 8.3883 23.5903 3.58112Z" fill="#00ABD7"/>
<path d="M42.8582 7.50245C44.4695 7.25139 46.2926 7.354 47.596 8.44555C48.8951 9.54583 49.3471 11.3469 49.1921 12.9929C49.2445 13.6566 48.7881 14.3727 48.0742 14.3858C45.8821 14.4381 43.6901 14.3836 41.498 14.4076C41.5089 15.5057 42.2163 16.5558 43.3014 16.8374C44.3625 17.0295 45.5415 17.0164 46.4804 16.4204C47.0087 16.1039 47.6572 15.7 48.2707 16.0689C49.0938 16.4815 49.0589 17.7368 48.334 18.2302C46.5721 19.6186 44.0787 19.8108 41.9936 19.11C40.6727 18.6515 39.5985 17.5491 39.1662 16.2196C38.5636 14.3508 38.5505 12.2791 39.2535 10.4365C39.8299 8.91709 41.2404 7.73604 42.8582 7.50245ZM42.3036 10.4562C41.8626 10.8928 41.7338 11.5215 41.5526 12.0913C43.201 12.1132 44.8472 12.1066 46.4956 12.0957C46.3799 11.4058 46.2118 10.6505 45.6179 10.2051C44.6398 9.49998 43.1792 9.64407 42.3036 10.4562Z" fill="#00ABD7"/>
<path d="M73.5122 7.82307C75.141 7.20744 77.0798 7.20089 78.6561 7.98899C80.1452 8.77054 80.8984 10.4712 80.9574 12.0954C80.9727 12.8333 81.036 13.7786 80.3504 14.2545C80.0273 14.3898 79.6714 14.4008 79.3264 14.4073C77.2872 14.416 75.2458 14.3767 73.2066 14.4269C73.3157 15.3155 73.6847 16.2738 74.5668 16.6493C75.7698 17.1536 77.2435 17.0554 78.3505 16.3481C78.7806 16.121 79.2544 15.7717 79.7631 15.9879C80.6954 16.156 80.9312 17.4658 80.2587 18.0596C79.1976 19.0507 77.7064 19.4219 76.2938 19.5201C74.6345 19.507 72.7961 19.0813 71.7241 17.7125C70.4446 16.0752 70.3442 13.8419 70.6062 11.8596C70.8333 10.1524 71.8376 8.44744 73.5122 7.82307ZM74.3899 10.1852C73.7502 10.6196 73.4292 11.3553 73.3266 12.0998C74.975 12.1063 76.6213 12.1063 78.2697 12.1019C78.1409 11.5431 78.047 10.9362 77.6409 10.5017C76.8593 9.55645 75.3659 9.56082 74.3899 10.1852Z" fill="#00ABD7"/>
<path d="M51.8556 7.57039C52.6765 7.28659 53.6852 7.96772 53.659 8.85406C53.7158 10.9455 53.6219 13.0391 53.6983 15.1305C53.7027 16.0103 54.4013 16.8355 55.2921 16.901C55.9777 16.9337 56.7702 17.0254 57.3335 16.5429C57.9099 16.1391 58.0628 15.3946 58.0824 14.7353C58.1064 12.7618 58.0584 10.7905 58.0955 8.81694C58.054 7.83892 59.3029 7.16215 60.1151 7.6861C60.6282 7.92406 60.8618 8.50039 60.8181 9.04399C60.8116 11.1529 60.8291 13.2617 60.8094 15.3706C60.8007 16.842 60.0452 18.3658 58.6545 18.9793C56.8772 19.6997 54.8118 19.6953 53.0433 18.9531C51.6918 18.32 50.9517 16.8224 50.9211 15.3728C50.8425 13.2705 50.8862 11.1616 50.8905 9.05708C50.8469 8.41307 51.2158 7.75377 51.8556 7.57039Z" fill="#00ABD7"/>
<path d="M63.1654 8.80779C63.1108 7.82321 64.3706 7.1661 65.1806 7.68786C65.6217 7.87997 65.7963 8.34497 65.9339 8.77068C66.6151 7.90617 67.6871 7.29491 68.8115 7.42589C69.6914 7.55469 70.2765 8.7161 69.6783 9.44307C69.2831 10.1417 68.3989 9.99321 67.7373 10.1504C66.7155 10.3425 66.0125 11.3293 65.9514 12.3357C65.7985 14.331 65.995 16.3395 65.8597 18.3348C65.6872 19.3762 64.1829 19.7058 63.5191 18.9396C63.1982 18.6405 63.1349 18.1907 63.1589 17.776C63.172 14.7873 63.1567 11.7965 63.1654 8.80779Z" fill="#00ABD7"/>
<path d="M94.2101 9.32559C94.9852 8.19693 96.3257 7.55509 97.6685 7.44376C99.0746 7.32587 100.594 7.38918 101.823 8.15981C102.939 8.84312 103.612 10.1573 103.561 11.4563C103.546 13.6438 103.561 15.8312 103.555 18.0187C103.609 18.8155 102.795 19.4988 102.018 19.346C101.409 19.3133 101.013 18.7457 100.847 18.213C99.3147 19.9551 96.3061 19.9071 94.6184 18.4226C93.0551 16.9795 93.0813 14.0585 94.9131 12.8469C96.6707 11.6681 98.8759 12.2444 100.852 12.0981C100.839 11.369 100.681 10.5459 99.9632 10.1879C98.8824 9.64869 97.5026 9.84517 96.5332 10.5416C96.0223 10.9193 95.3301 11.2947 94.721 10.8996C94.1511 10.6071 94.0311 9.88883 94.2101 9.32559ZM97.2886 14.3533C96.1227 14.5847 95.9349 16.4381 97.02 16.8944C98.1401 17.39 99.675 17.1935 100.433 16.1587C100.843 15.6282 100.812 14.9252 100.834 14.29C99.6531 14.3292 98.461 14.1961 97.2886 14.3533Z" fill="#00ABD7"/>
</svg>
