<svg width="96" height="19" viewBox="0 0 96 19" fill="none" xmlns="http://www.w3.org/2000/svg">
<path d="M67.4481 0.570634C67.4061 0.28184 67.6491 -0.0170355 67.9635 0.00240942C69.1683 0.00024887 70.3731 0.00096835 71.578 0.00168853C71.8623 -0.0227977 72.1196 0.222786 72.1091 0.494295C72.1136 3.16329 72.1114 5.83229 72.1099 8.50129C73.5187 7.25826 74.9261 6.01306 76.3358 4.77002C76.4438 4.66199 76.5946 4.60582 76.7514 4.6159C78.2495 4.61734 79.7484 4.60942 81.2466 4.62022C81.6757 4.62022 81.882 5.20645 81.5497 5.46284C80.0973 6.74044 78.6389 8.01229 77.185 9.28845C78.7664 12.0482 80.3509 14.8058 81.933 17.5648C82.0321 17.7549 82.1753 17.9292 82.2226 18.1409C82.2691 18.4261 82.0058 18.7063 81.7057 18.689C80.3013 18.6919 78.8962 18.6912 77.4918 18.689C77.2863 18.6984 77.0845 18.586 77.0012 18.4038C75.8579 16.2944 74.7048 14.1886 73.5698 12.0748C73.4257 12.1353 73.3184 12.247 73.2059 12.3471C72.8428 12.6733 72.4715 12.9902 72.1099 13.3172C72.1106 14.9505 72.1159 16.5846 72.1076 18.218C72.1114 18.4837 71.8525 18.7034 71.581 18.689C70.3769 18.6912 69.1728 18.6919 67.9687 18.689C67.6672 18.7048 67.4121 18.4269 67.4488 18.1417C67.4473 12.2851 67.4488 6.42788 67.4481 0.570634Z" fill="black"/>
<path d="M54.4072 5.69782C55.6601 4.70901 57.2955 4.27474 58.8934 4.20488C60.3068 4.15447 61.7615 4.29347 63.0631 4.85521C63.9993 5.25635 64.8253 5.92468 65.3197 6.79394C65.7871 7.5919 65.9649 8.51806 65.9626 9.42693C65.9634 12.3321 65.9619 15.2374 65.9626 18.1426C65.9994 18.4343 65.7353 18.7094 65.4292 18.6885C64.2551 18.6885 63.0811 18.6914 61.9078 18.687C61.6684 18.6906 61.4411 18.5063 61.4149 18.2773C61.3909 18.0137 61.3999 17.7494 61.3894 17.4858C60.7142 18.0374 59.952 18.5135 59.0945 18.7555C58.0802 19.0392 56.9857 19.0385 55.9654 18.7843C54.8693 18.5077 53.8476 17.8898 53.1971 16.9881C52.4154 15.9172 52.2286 14.4992 52.5992 13.2518C52.852 12.4078 53.4905 11.715 54.2557 11.2555C55.4815 10.5108 56.9136 10.199 58.2993 9.85256C59.312 9.59833 60.3248 9.34555 61.3376 9.09061C61.2776 8.45396 60.7464 7.93543 60.1043 7.81084C59.1417 7.60127 57.9512 7.67761 57.2745 8.45324C57.0149 8.71035 56.9647 9.23824 56.4973 9.22528C55.39 8.99914 54.2917 8.72691 53.1889 8.47989C52.9015 8.42444 52.708 8.10467 52.8213 7.84037C53.1356 7.0064 53.6938 6.26029 54.4072 5.69782ZM58.4336 12.9321C57.9932 13.0927 57.5086 13.2828 57.261 13.6933C57.0164 14.1521 57.126 14.7815 57.5558 15.1063C58.0112 15.457 58.6414 15.5038 59.198 15.4081C59.9782 15.2561 60.6279 14.7858 61.3023 14.4084C61.3061 13.6479 61.3211 12.8881 61.3286 12.1283C60.3653 12.4006 59.3841 12.6188 58.4336 12.9321Z" fill="black"/>
<path d="M85.837 4.7383C87.8176 3.99796 90.1342 4.03468 92.0427 4.9594C93.7127 5.75592 94.9588 7.26038 95.4937 8.96506C95.8485 10.0208 95.892 11.1378 95.8988 12.2376C95.9198 12.5199 95.655 12.7712 95.3616 12.7503C92.2085 12.7539 89.0562 12.7489 85.9038 12.7532C85.9728 13.6232 86.4485 14.4622 87.2129 14.9455C88.7591 15.9292 91.0675 15.6073 92.2085 14.1849C92.3541 13.9523 92.6759 13.7975 92.9385 13.9559C93.7412 14.4593 94.5342 14.9786 95.3316 15.4892C95.5537 15.6167 95.6437 15.917 95.5124 16.1352C94.6482 17.438 93.2108 18.3325 91.6609 18.7019C90.2933 19.0275 88.8536 19.088 87.4627 18.8769C85.7913 18.6134 84.1761 17.8608 83.044 16.635C81.9315 15.4539 81.3508 13.8789 81.2413 12.3045C81.1235 10.7706 81.3831 9.18327 82.1595 7.82573C82.9488 6.41705 84.2856 5.31301 85.837 4.7383ZM87.0711 8.09868C86.408 8.50774 86.0516 9.25457 85.9946 9.99276C87.7066 9.99204 89.4178 9.99276 91.1297 9.99276C91.126 9.27906 90.8139 8.53871 90.1815 8.13253C89.2737 7.5463 87.9901 7.52685 87.0711 8.09868Z" fill="black"/>
<path d="M35.56 4.45389C36.8976 4.16366 38.365 4.28321 39.5728 4.93282C40.1685 5.2533 40.6839 5.70701 41.0725 6.24571C41.9472 5.24033 43.2173 4.58137 44.5639 4.39052C45.8093 4.21407 47.1214 4.30194 48.2879 4.77798C49.2332 5.16111 50.0412 5.85177 50.531 6.72031C51.0532 7.63062 51.2452 8.68353 51.246 9.71339C51.2475 12.5228 51.246 15.3323 51.246 18.1417C51.2813 18.4254 51.0284 18.7034 50.7276 18.6883C49.4995 18.6912 48.2714 18.6898 47.0434 18.689C46.7635 18.7114 46.4904 18.4852 46.4995 18.2116C46.4919 15.6909 46.4995 13.1703 46.4957 10.6496C46.4965 10.0418 46.3419 9.39651 45.8978 8.94279C45.4492 8.47612 44.7477 8.30759 44.1055 8.37313C43.1798 8.45811 42.3846 9.1322 42.0432 9.93737C42.0305 12.6971 42.0462 15.4569 42.0357 18.2159C42.041 18.4859 41.7724 18.7099 41.4971 18.6905C40.2683 18.6912 39.0394 18.6926 37.8106 18.6898C37.5098 18.7063 37.2524 18.429 37.2892 18.1446C37.2877 15.647 37.2907 13.1487 37.2877 10.6511C37.2899 10.0267 37.1241 9.3605 36.6523 8.90535C36.1249 8.3969 35.3042 8.26654 34.5952 8.4221C33.9103 8.57118 33.3484 9.04794 32.995 9.61833C32.9275 9.73932 32.824 9.85887 32.8337 10.0051C32.8315 12.7382 32.8375 15.4713 32.8315 18.2043C32.8427 18.4881 32.5562 18.7193 32.2688 18.6898C31.0437 18.689 29.8187 18.6926 28.5936 18.6876C28.2942 18.6998 28.0497 18.4204 28.0842 18.141C28.0857 13.7947 28.0804 9.44836 28.0864 5.10134C28.0767 4.84279 28.3198 4.61017 28.5891 4.61738C29.8404 4.61522 31.0918 4.61377 32.3431 4.61882C32.6064 4.61737 32.8412 4.84783 32.8322 5.10134C32.839 5.44487 32.83 5.78911 32.8337 6.13336C33.5172 5.30515 34.4812 4.68651 35.56 4.45389Z" fill="black"/>
<path d="M11.2812 4.82316C11.3277 4.57829 11.6045 4.40257 11.8574 4.45442C12.0547 4.48107 12.249 4.52644 12.4455 4.56101C12.2227 4.81524 12.345 5.14148 12.4133 5.42811C12.4943 5.4526 12.5753 5.4778 12.6571 5.50301C12.7591 5.85662 12.7621 6.22463 12.7756 6.58833C12.8904 6.60705 13.0052 6.62721 13.1207 6.64594C13.1387 7.00675 13.1342 7.37333 13.2362 7.72478C13.3188 7.75286 13.402 7.78095 13.4853 7.80904C13.5183 8.00637 13.5356 8.20946 13.6076 8.39887C13.6924 8.57099 13.8394 8.7071 13.9287 8.87779C13.9894 9.11545 13.9354 9.36607 13.9924 9.60517C14.0945 9.66495 14.2047 9.71104 14.3135 9.75857C14.3518 10.0755 14.3083 10.4096 14.4283 10.7135C14.5386 10.8475 14.6736 10.9606 14.7907 11.0902C14.5371 12.1892 14.3533 13.3048 14.0855 14.3994L14.0502 14.4045C13.9812 14.2547 13.9452 14.0948 13.9204 13.9342C13.8161 13.9097 13.7126 13.8859 13.6083 13.8629C13.5476 13.5021 13.5093 13.1391 13.4876 12.7747C13.3728 12.7545 13.258 12.7344 13.144 12.7149C13.1275 12.4398 13.1395 12.1633 13.1132 11.8889C13.1117 11.6923 12.8904 11.6246 12.7719 11.5014C12.7366 11.2782 12.7486 11.0506 12.7434 10.8259C12.6263 10.8079 12.51 10.7899 12.393 10.7719C12.3773 10.4341 12.3758 10.0913 12.2737 9.76433C12.1552 9.68655 11.9346 9.67071 11.9376 9.49787C11.8994 9.21483 11.9579 8.92964 11.9204 8.64733C11.8266 8.56091 11.6991 8.51914 11.5925 8.44856C11.4748 8.09567 11.6848 7.60883 11.3105 7.35964C11.1357 7.24873 11.1889 7.0298 11.1597 6.85911C11.0561 6.87136 10.9534 6.8836 10.8506 6.89584C10.9999 6.20591 11.1297 5.51237 11.2812 4.82316Z" fill="#8C27D8"/>
<path d="M6.11216 4.85046C6.18043 4.71291 6.29146 4.57895 6.4565 4.5487C6.74833 4.47237 6.9944 4.6805 7.24872 4.77988L7.24647 4.79069C7.23296 4.86198 7.22021 4.934 7.20746 5.00602C7.39351 5.17743 7.49103 5.4122 7.63732 5.61241C7.73035 5.93002 7.7506 6.26202 7.82788 6.58394C7.90365 6.58826 7.97942 6.59547 8.05594 6.60123C8.12421 6.85473 8.19923 7.10608 8.28175 7.35598C8.35827 7.3675 8.43404 7.38119 8.50981 7.39343C8.55632 7.61957 8.60584 7.8457 8.6441 8.074C8.69736 8.09273 8.75063 8.11217 8.80389 8.13234C8.89692 8.48091 9.0087 8.82443 9.10472 9.173C8.70787 9.94216 8.31101 10.712 7.90065 11.4754C7.69584 11.2536 7.63732 10.9497 7.44227 10.72C7.38976 10.4261 7.35525 10.12 7.16319 9.8723C7.13769 9.93928 7.11293 10.0055 7.08892 10.0732C6.98615 9.72538 6.90212 9.37105 6.7971 9.02464C6.56153 8.78266 6.54878 8.43265 6.34847 8.16979C6.19768 7.97534 6.19918 7.72471 6.12491 7.5029C6.05514 7.40855 5.95987 7.33653 5.8826 7.24939C5.75056 7.03478 5.71455 6.78271 5.64703 6.54505C5.50974 6.52705 5.3597 6.56522 5.21191 6.5681C5.5135 5.99627 5.81358 5.42373 6.11216 4.85046Z" fill="#C520EE"/>
<path d="M12.4456 4.56055C13.4524 4.76652 14.4652 4.94656 15.4727 5.14966C15.6385 5.17558 15.781 5.28505 15.8493 5.43125C15.9476 5.62498 15.8515 5.83815 15.8223 6.0362C15.4817 7.72143 15.1163 9.40162 14.7907 11.0897C14.6737 10.9601 14.5387 10.847 14.4284 10.7131C14.3084 10.4092 14.3519 10.075 14.3136 9.75811C14.2048 9.71058 14.0946 9.66448 13.9925 9.60471C13.9355 9.36561 13.9895 9.11498 13.9288 8.87732C13.8395 8.70664 13.6924 8.57052 13.6077 8.3984C13.5357 8.20899 13.5184 8.0059 13.4854 7.80857C13.4021 7.78048 13.3188 7.7524 13.2363 7.72431C13.1343 7.37286 13.1388 7.00629 13.1208 6.64548C13.0053 6.62675 12.8905 6.60659 12.7757 6.58786C12.7622 6.22417 12.7592 5.85616 12.6572 5.50255C12.5754 5.47734 12.4944 5.45213 12.4133 5.42765C12.3451 5.14101 12.2228 4.81477 12.4456 4.56055Z" fill="#7E25D1"/>
<path d="M16.4342 5.17311C16.3974 4.88504 16.6525 4.60345 16.9608 4.62505C18.1837 4.62361 19.4073 4.62073 20.6301 4.62649C20.8957 4.61785 21.1365 4.84903 21.1305 5.10325C21.1447 9.48197 21.1162 13.8621 21.1432 18.2401C20.9707 18.0601 20.7231 17.9225 20.6729 17.664C20.5731 17.2693 20.3165 16.9157 20.321 16.4987C20.258 16.4404 20.1935 16.3828 20.1305 16.3251C20.1237 16.1934 20.117 16.0623 20.1087 15.9312C19.8041 15.7072 19.7839 15.3263 19.6998 14.9979C19.552 14.6817 19.489 14.3281 19.2707 14.045C19.0944 13.8362 19.1972 13.5431 19.0584 13.3191C18.9136 13.0426 18.8304 12.7408 18.6638 12.4743C18.534 12.2698 18.573 12.0141 18.456 11.806C18.2669 11.4704 18.2729 11.0469 17.9706 10.7704C17.9204 10.2749 17.6735 9.82045 17.4425 9.38258C17.3449 9.1478 17.3622 8.88205 17.2309 8.6588C17.1034 8.32175 17.0044 7.97462 16.8716 7.63974C16.7965 7.54396 16.681 7.4885 16.5827 7.41864C16.5265 7.67647 16.504 7.94078 16.5092 8.20508C16.5077 9.85214 16.474 11.4999 16.4957 13.1477C16.4905 14.2129 16.477 15.278 16.4852 16.3439C16.4687 16.9762 16.5167 17.61 16.4492 18.2408C16.4304 13.8852 16.4477 9.52878 16.4342 5.17311Z" fill="#6D00CD"/>
<path d="M7.20752 5.00538C7.22027 4.93336 7.23303 4.86134 7.24653 4.79004C8.18354 5.22503 9.10854 5.68307 10.0395 6.12814C10.2181 6.20304 10.3809 6.35284 10.3921 6.54945C10.4146 6.71797 10.3141 6.86633 10.2428 7.01253C9.85874 7.72983 9.49414 8.45721 9.10479 9.17235C9.00876 8.82378 8.89698 8.48026 8.80395 8.13169C8.75069 8.11153 8.69743 8.09208 8.64416 8.07336C8.6059 7.84506 8.55639 7.61892 8.50987 7.39278C8.4341 7.38054 8.35833 7.36686 8.28181 7.35533C8.19929 7.10543 8.12427 6.85408 8.056 6.60058C7.97948 6.59482 7.90371 6.58762 7.82794 6.5833C7.75067 6.26137 7.73041 5.92937 7.63739 5.61177C7.4911 5.41156 7.39357 5.17678 7.20752 5.00538Z" fill="#B629EA"/>
<path d="M5.21205 6.56789C5.35984 6.56501 5.50988 6.52684 5.64717 6.54485C5.71469 6.78251 5.7507 7.03457 5.88273 7.24918C5.96 7.33633 6.05528 7.40834 6.12505 7.50269C6.19932 7.7245 6.19782 7.97513 6.34861 8.16958C6.54891 8.43245 6.56167 8.78245 6.79723 9.02444C6.90226 9.37084 6.98628 9.72517 7.08906 10.073C7.11307 10.0053 7.13782 9.93907 7.16333 9.87209C7.35538 10.1198 7.38989 10.4259 7.44241 10.7197C7.63746 10.9495 7.69598 11.2534 7.90078 11.4752C7.48217 12.2847 7.06205 13.0949 6.63294 13.8994C6.36586 13.7366 6.57367 13.3902 6.36436 13.1986C6.16781 12.989 6.20082 12.6858 6.12655 12.4295C6.05003 12.4007 5.97351 12.3733 5.89699 12.3452C5.7747 11.9938 5.65992 11.6387 5.60365 11.2714C5.52113 11.2433 5.43936 11.2152 5.35684 11.1879C5.29082 10.9308 5.29832 10.642 5.12052 10.4252C4.97874 10.2315 4.97949 9.98444 4.92622 9.76118C4.84895 9.73238 4.77243 9.70357 4.69516 9.67476C4.61038 9.43854 4.55562 9.19152 4.45434 8.96034C4.28405 8.76661 4.122 9.0518 3.9292 9.02372C4.35306 8.20343 4.78743 7.38746 5.21205 6.56789Z" fill="#D915F4"/>
<path d="M10.8503 6.89611C10.9531 6.88386 11.0559 6.87162 11.1594 6.85938C11.1887 7.03006 11.1354 7.24899 11.3102 7.3599C11.6845 7.60909 11.4745 8.09593 11.5923 8.44882C11.6988 8.5194 11.8263 8.56117 11.9201 8.64759C11.9576 8.9299 11.8991 9.2151 11.9374 9.49813C11.9344 9.67097 12.1549 9.68682 12.2735 9.7646C12.3755 10.0916 12.377 10.4344 12.3927 10.7721C12.5098 10.7901 12.6261 10.8081 12.7431 10.8261C12.7483 11.0508 12.7363 11.2784 12.7716 11.5017C12.8901 11.6248 13.1114 11.6925 13.1129 11.8891C13.1392 12.1635 13.1272 12.4401 13.1437 12.7152C13.2577 12.7346 13.3725 12.7548 13.4873 12.775C13.509 13.1394 13.5473 13.5023 13.6081 13.8632C13.7123 13.8862 13.8159 13.91 13.9202 13.9345C13.9449 14.0951 13.9809 14.2549 14.0499 14.4047L14.0649 14.4609C13.8706 15.6931 13.5683 16.9153 13.3327 18.1439C13.284 18.3506 13.2795 18.6048 13.0747 18.7345C12.8676 18.8951 12.5953 18.7993 12.3627 18.7662C12.4167 18.6675 12.584 18.5818 12.5023 18.4565C12.362 18.2159 12.4392 17.9084 12.2472 17.6945C12.1534 17.5793 12.1647 17.4259 12.1414 17.2905C12.0792 17.2315 12.0139 17.1774 11.9516 17.1198C11.9441 16.9628 11.9381 16.8065 11.9269 16.651C11.668 16.4616 11.6245 16.1418 11.518 15.8689C11.2419 15.2618 11.2344 14.5228 10.7543 14.0144C10.7415 13.8819 10.7325 13.7494 10.7235 13.6176C10.6598 13.5585 10.5945 13.5016 10.5307 13.4433C10.5337 13.1091 10.3522 12.8081 10.3387 12.4754C10.2036 12.3616 10.1286 12.2075 10.0881 12.0425C9.99208 12.0281 9.89606 12.0144 9.80078 12.0008C10.1564 10.3004 10.5007 8.5979 10.8503 6.89611Z" fill="#9A29DF"/>
<path d="M16.5826 7.41895C16.6809 7.4888 16.7964 7.54426 16.8714 7.64004C17.0042 7.97493 17.1032 8.32206 17.2308 8.6591C17.3621 8.88236 17.3448 9.14811 17.4423 9.38289C17.6734 9.82076 17.9202 10.2752 17.9705 10.7707C18.2728 11.0472 18.2668 11.4707 18.4558 11.8063C18.5729 12.0144 18.5339 12.2701 18.6637 12.4746C18.8302 12.7411 18.9135 13.0429 19.0583 13.3194C19.1971 13.5434 19.0943 13.8365 19.2706 14.0454C19.4889 14.3284 19.5519 14.682 19.6997 14.9982C19.7837 15.3266 19.804 15.7075 20.1086 15.9315C20.1168 16.0626 20.1236 16.1937 20.1303 16.3255C20.1933 16.3831 20.2578 16.4407 20.3209 16.499C20.3164 16.916 20.5729 17.2696 20.6727 17.6643C20.723 17.9228 20.9705 18.0604 21.1431 18.2404C21.0703 18.4536 20.8903 18.6567 20.6367 18.648C19.3726 18.6538 18.1078 18.6524 16.8437 18.6315C17.5271 18.5271 18.2225 18.6099 18.9097 18.5487C18.7942 18.4586 18.6764 18.3708 18.5609 18.2815C18.5616 18.0719 18.5376 17.8616 18.3951 17.6945C18.176 17.4136 18.2428 17.0255 18.0215 16.7496C17.9225 16.6164 17.951 16.4407 17.9255 16.288C17.6494 16.0532 17.5714 15.691 17.5481 15.3539C17.3328 15.2293 17.344 14.9859 17.3215 14.7749C17.047 14.538 17.0132 14.1555 16.9464 13.8286C16.8819 13.771 16.8152 13.7162 16.7506 13.6593C16.7416 13.5031 16.7341 13.3468 16.7259 13.1912C16.6681 13.1804 16.5533 13.1588 16.4956 13.148C16.4738 11.5002 16.5076 9.85245 16.5091 8.20539C16.5038 7.94108 16.5263 7.67677 16.5826 7.41895Z" fill="#7F0CD5"/>
<path d="M3.92884 9.02289C4.12165 9.05098 4.28369 8.76579 4.45399 8.95952C4.55526 9.1907 4.61003 9.43772 4.6948 9.67394C4.77207 9.70274 4.84859 9.73155 4.92586 9.76036C4.97913 9.98362 4.97838 10.2306 5.12017 10.4244C5.29797 10.6411 5.29046 10.9299 5.35648 11.187C5.439 11.2144 5.52078 11.2425 5.6033 11.2706C5.65956 11.6379 5.77435 11.9929 5.89663 12.3444C5.97315 12.3725 6.04967 12.3998 6.12619 12.4286C6.20046 12.685 6.16745 12.9882 6.36401 13.1978C6.57331 13.3894 6.36551 13.7358 6.63258 13.8985C6.22072 14.703 5.79535 15.5017 5.37899 16.3039C5.10066 15.941 4.98213 15.5031 4.84784 15.0789C4.77057 15.0508 4.69255 15.0235 4.61453 14.9961C4.51475 14.4516 4.35721 13.9029 4.04137 13.4347C3.91234 13.0926 3.73679 12.7657 3.64752 12.4106C3.57025 12.384 3.49297 12.3573 3.4157 12.3321C3.3977 12.2104 3.38044 12.0902 3.36094 11.9699C3.34218 11.6688 3.06911 11.4586 3.05185 11.1554C3.00684 11.2576 2.96108 11.3592 2.91757 11.4629C2.91682 11.339 2.89581 11.2166 2.8418 11.1042C3.19964 10.4085 3.56874 9.71715 3.92884 9.02289Z" fill="#EE09FA"/>
<path d="M2.84203 11.1055C2.89604 11.2178 2.91705 11.3402 2.9178 11.4641C2.96131 11.3604 3.00707 11.2589 3.05208 11.1566C3.06934 11.4598 3.34241 11.6701 3.36117 11.9711C3.38067 12.0914 3.39793 12.2117 3.41593 12.3334C3.4932 12.3586 3.57048 12.3852 3.64775 12.4119C3.73702 12.7669 3.91257 13.0939 4.0416 13.436C4.35744 13.9041 4.51498 14.4529 4.61476 14.9973C4.69278 15.0247 4.7708 15.0521 4.84807 15.0802C4.98236 15.5043 5.10089 15.9422 5.37922 16.3052C4.99436 17.0247 4.62376 17.7513 4.23966 18.4715C4.12788 18.7149 3.79479 18.828 3.55172 18.6948C2.46917 18.1762 1.38963 17.6527 0.307836 17.1327C0.160796 17.0643 0.0145065 16.9469 0.0100053 16.7769C-0.0395082 16.5356 0.105281 16.3246 0.213311 16.1201C1.0933 14.4507 1.96279 12.7756 2.84203 11.1055Z" fill="#FF00FE"/>
<path d="M9.80109 12.001C9.89636 12.0147 9.99239 12.0283 10.0884 12.0427C10.1289 12.2077 10.2039 12.3618 10.339 12.4756C10.3525 12.8083 10.534 13.1093 10.531 13.4435C10.5948 13.5018 10.6601 13.5587 10.7238 13.6178C10.7328 13.7496 10.7418 13.8821 10.7546 14.0146C11.2347 14.5231 11.2422 15.262 11.5183 15.8691C11.6248 16.142 11.6683 16.4618 11.9272 16.6512C11.9384 16.8068 11.9444 16.963 11.9519 17.12C12.0142 17.1777 12.0795 17.2317 12.1417 17.2907C12.165 17.4261 12.1537 17.5795 12.2475 17.6947C12.4396 17.9086 12.3623 18.2162 12.5026 18.4567C12.5843 18.582 12.417 18.6677 12.363 18.7664C11.3578 18.559 10.3487 18.3732 9.34196 18.1751C9.15441 18.1319 8.93535 18.1261 8.79581 17.9814C8.66603 17.8575 8.63002 17.671 8.67428 17.5046C9.04938 15.6703 9.42824 13.836 9.80109 12.001Z" fill="#A72CE6"/>
<path d="M16.4957 13.1484C16.5535 13.1592 16.6683 13.1808 16.726 13.1916C16.7343 13.3472 16.7418 13.5035 16.7508 13.6598C16.8153 13.7167 16.8821 13.7714 16.9466 13.829C17.0134 14.156 17.0471 14.5384 17.3217 14.7753C17.3442 14.9863 17.333 15.2298 17.5483 15.3544C17.5715 15.6914 17.6495 16.0537 17.9256 16.2884C17.9511 16.4411 17.9226 16.6168 18.0216 16.7501C18.243 17.0259 18.1762 17.4141 18.3952 17.695C18.5378 17.862 18.5618 18.0723 18.561 18.2819C18.6766 18.3712 18.7944 18.4591 18.9099 18.5491C18.2227 18.6103 17.5273 18.5275 16.8438 18.6319C16.645 18.6139 16.4582 18.4339 16.4492 18.2416C16.5167 17.6107 16.4687 16.9769 16.4852 16.3446C16.477 15.2787 16.4905 14.2136 16.4957 13.1484Z" fill="#9017DB"/>
</svg>
