<svg width="79" height="27" viewBox="0 0 79 27" fill="none" xmlns="http://www.w3.org/2000/svg">
<g clip-path="url(#clip0_42_4402)">
<path d="M33.619 13.8463C33.619 17.594 30.7175 20.3556 27.1567 20.3556C23.5958 20.3556 20.6943 17.594 20.6943 13.8463C20.6943 10.0721 23.5958 7.33691 27.1567 7.33691C30.7175 7.33691 33.619 10.0721 33.619 13.8463ZM30.7901 13.8463C30.7901 11.5043 29.1084 9.90191 27.1567 9.90191C25.2049 9.90191 23.5232 11.5043 23.5232 13.8463C23.5232 16.1647 25.2049 17.7906 27.1567 17.7906C29.1084 17.7906 30.7901 16.1618 30.7901 13.8463Z" fill="#EA4335"/>
<path d="M47.5594 13.8463C47.5594 17.594 44.6579 20.3556 41.0971 20.3556C37.5363 20.3556 34.6348 17.594 34.6348 13.8463C34.6348 10.0751 37.5363 7.33691 41.0971 7.33691C44.6579 7.33691 47.5594 10.0721 47.5594 13.8463ZM44.7305 13.8463C44.7305 11.5043 43.0488 9.90191 41.0971 9.90191C39.1453 9.90191 37.4637 11.5043 37.4637 13.8463C37.4637 16.1647 39.1453 17.7906 41.0971 17.7906C43.0488 17.7906 44.7305 16.1618 44.7305 13.8463Z" fill="#FBBC05"/>
<path d="M60.92 7.73017V19.4165C60.92 24.2237 58.1143 26.187 54.7975 26.187C51.6753 26.187 49.7961 24.0769 49.0874 22.3513L51.5504 21.3153C51.9889 22.3747 53.0636 23.625 54.7946 23.625C56.9177 23.625 58.2334 22.3014 58.2334 19.8097V18.8735H58.1347C57.5015 19.663 56.2816 20.3527 54.7423 20.3527C51.5213 20.3527 48.5704 17.5177 48.5704 13.8697C48.5704 10.1954 51.5213 7.33691 54.7423 7.33691C56.2787 7.33691 57.4986 8.02659 58.1347 8.79257H58.2334V7.73311H60.92V7.73017ZM58.4338 13.8697C58.4338 11.5777 56.9206 9.90191 54.995 9.90191C53.0432 9.90191 51.408 11.5777 51.408 13.8697C51.408 16.1383 53.0432 17.7906 54.995 17.7906C56.9206 17.7906 58.4338 16.1383 58.4338 13.8697Z" fill="#4285F4"/>
<path d="M65.349 0.880859V19.9569H62.5898V0.880859H65.349Z" fill="#34A853"/>
<path d="M76.1013 15.9887L78.2971 17.4678C77.5884 18.5272 75.8806 20.3527 72.9297 20.3527C69.2702 20.3527 66.5371 17.4942 66.5371 13.8433C66.5371 9.97235 69.2934 7.33398 72.6131 7.33398C75.9561 7.33398 77.5913 10.0222 78.1257 11.475L78.4191 12.2145L69.8075 15.8184C70.4668 17.1244 71.492 17.7906 72.9297 17.7906C74.3703 17.7906 75.3694 17.0745 76.1013 15.9887ZM69.3428 13.6467L75.0993 11.2314C74.7827 10.4184 73.8301 9.85203 72.709 9.85203C71.2713 9.85203 69.2702 11.1345 69.3428 13.6467Z" fill="#EA4335"/>
<path d="M10.2497 12.1527V9.39107H19.4596C19.5497 9.87237 19.5961 10.4417 19.5961 11.058C19.5961 13.13 19.0356 15.692 17.229 17.5175C15.4719 19.3664 13.2267 20.3525 10.2526 20.3525C4.74006 20.3525 0.104614 15.8153 0.104614 10.2451C0.104614 4.67487 4.74006 0.137695 10.2526 0.137695C13.3023 0.137695 15.4748 1.34683 17.107 2.9228L15.1785 4.8715C14.008 3.76215 12.4222 2.89933 10.2497 2.89933C6.22421 2.89933 3.07583 6.17748 3.07583 10.2451C3.07583 14.3127 6.22421 17.5908 10.2497 17.5908C12.8608 17.5908 14.3478 16.5314 15.3005 15.5688C16.0731 14.7881 16.5813 13.6729 16.7817 12.1498L10.2497 12.1527Z" fill="#4285F4"/>
</g>
<defs>
<clipPath id="clip0_42_4402">
<rect width="79" height="27" fill="white"/>
</clipPath>
</defs>
</svg>
