<svg width="94" height="29" viewBox="0 0 94 29" fill="none" xmlns="http://www.w3.org/2000/svg">
<g clip-path="url(#clip0_42_4456)">
<path d="M20.1974 6.01165C20.1821 5.87571 20.0592 5.8153 19.9671 5.8153C19.8749 5.8153 17.8628 5.66426 17.8628 5.66426C17.8628 5.66426 16.4651 4.28978 16.2961 4.15384C16.1425 4.0028 15.8507 4.04811 15.7278 4.07832C15.7125 4.07832 15.4207 4.16895 14.9445 4.31999C14.4684 2.97572 13.6543 1.75228 12.1952 1.75228H12.0569C11.6576 1.23874 11.1354 0.99707 10.7053 0.99707C7.3262 0.99707 5.6981 5.15072 5.19124 7.2653C3.87032 7.67311 2.93339 7.94499 2.82588 7.9903C2.08862 8.21686 2.07326 8.23197 1.98111 8.91165C1.90431 9.42519 -0.015625 24.0309 -0.015625 24.0309L14.9291 26.7799L23.039 25.058C23.0543 25.0278 20.2128 6.14759 20.1974 6.01165ZM14.1151 4.53144C13.7465 4.63717 13.301 4.77311 12.8556 4.92415V4.65228C12.8556 3.83665 12.7481 3.17207 12.5484 2.64342C13.3164 2.73405 13.7925 3.56478 14.1151 4.53144ZM11.6115 2.80957C11.8112 3.32311 11.9494 4.04811 11.9494 5.04499V5.19603C11.12 5.4528 10.2445 5.70957 9.3383 5.99655C9.84516 4.09342 10.8128 3.15697 11.6115 2.80957ZM10.6285 1.87311C10.7821 1.87311 10.9357 1.93353 11.0586 2.02415C9.96804 2.52259 8.81607 3.77623 8.33993 6.31373C7.61804 6.5403 6.92686 6.73665 6.2664 6.94811C6.81934 5.01478 8.20169 1.87311 10.6285 1.87311Z" fill="#95BF47"/>
<path d="M19.9674 5.78529C19.8753 5.78529 17.8632 5.63425 17.8632 5.63425C17.8632 5.63425 16.4655 4.25977 16.2965 4.12383C16.2351 4.06341 16.1583 4.0332 16.0968 4.0332L14.9756 26.7801L23.0854 25.0582C23.0854 25.0582 20.2439 6.14779 20.2285 6.01185C20.1671 5.87591 20.0596 5.8155 19.9674 5.78529Z" fill="#5E8E3E"/>
<path d="M12.1955 10.1954L11.2125 13.1105C11.2125 13.1105 10.3216 12.6423 9.26182 12.6423C7.67979 12.6423 7.603 13.6241 7.603 13.8657C7.603 15.1949 11.1357 15.7084 11.1357 18.835C11.1357 21.297 9.55365 22.8829 7.41868 22.8829C4.83829 22.8829 3.5481 21.3121 3.5481 21.3121L4.23927 19.0767C4.23927 19.0767 5.59091 20.2246 6.72751 20.2246C7.48012 20.2246 7.78731 19.6506 7.78731 19.2277C7.78731 17.4907 4.89973 17.4152 4.89973 14.5454C4.89973 12.1438 6.65071 9.81781 10.1988 9.81781C11.5197 9.8027 12.1955 10.1954 12.1955 10.1954Z" fill="white"/>
<path d="M32.5 15.6777C31.686 15.2547 31.2713 14.8771 31.2713 14.3787C31.2713 13.7443 31.8549 13.3365 32.7611 13.3365C33.821 13.3365 34.7579 13.7594 34.7579 13.7594L35.4951 11.5391C35.4951 11.5391 34.8193 11.0256 32.8226 11.0256C30.0425 11.0256 28.1072 12.5964 28.1072 14.8016C28.1072 16.0553 29.0134 17.0068 30.2115 17.6865C31.1945 18.2152 31.5324 18.6079 31.5324 19.1818C31.5324 19.7709 31.0409 20.2542 30.1347 20.2542C28.7984 20.2542 27.5236 19.5745 27.5236 19.5745L26.7402 21.7949C26.7402 21.7949 27.9076 22.5652 29.8736 22.5652C32.7304 22.5652 34.804 21.1756 34.804 18.6834C34.7732 17.324 33.7442 16.3876 32.5 15.6777ZM43.8968 10.9954C42.4837 10.9954 41.3778 11.66 40.533 12.6568L40.5023 12.6417L41.7311 6.3584H38.5517L35.4491 22.3688H38.6285L39.6883 16.9011C40.103 14.8318 41.1935 13.548 42.2072 13.548C42.9291 13.548 43.2056 14.0313 43.2056 14.711C43.2056 15.1339 43.1749 15.6777 43.0674 16.1006L41.8693 22.3688H45.0487L46.2928 15.9042C46.4311 15.2245 46.5232 14.4089 46.5232 13.8501C46.5079 12.0527 45.5709 10.9954 43.8968 10.9954ZM53.7115 10.9954C49.8716 10.9954 47.3373 14.3938 47.3373 18.185C47.3373 20.6016 48.8579 22.5652 51.7147 22.5652C55.4778 22.5652 58.0121 19.2574 58.0121 15.3756C58.0275 13.1251 56.7066 10.9954 53.7115 10.9954ZM52.1448 20.1787C51.0543 20.1787 50.6089 19.2725 50.6089 18.1245C50.6089 16.3271 51.5458 13.412 53.2814 13.412C54.4026 13.412 54.7866 14.3787 54.7866 15.3001C54.7866 17.2183 53.819 20.1787 52.1448 20.1787ZM66.168 10.9954C64.0177 10.9954 62.8043 12.8683 62.8043 12.8683H62.7736L62.9579 11.1917H60.1317C59.9935 12.3245 59.7324 14.0615 59.4866 15.3454L57.2902 26.8094H60.4696L61.3605 22.1725H61.4373C61.4373 22.1725 62.0977 22.5803 63.2958 22.5803C67.0435 22.5803 69.4857 18.8042 69.4857 14.998C69.4703 12.8834 68.5026 10.9954 66.168 10.9954ZM63.1268 20.2089C62.2974 20.2089 61.8059 19.7407 61.8059 19.7407L62.3281 16.8256C62.6968 14.862 63.7412 13.5782 64.8471 13.5782C65.8301 13.5782 66.1219 14.4693 66.1219 15.3001C66.1373 17.324 64.9085 20.2089 63.1268 20.2089ZM74.0167 6.50944C73.003 6.50944 72.1889 7.30996 72.1889 8.32194C72.1889 9.24329 72.7879 9.89277 73.6941 9.89277H73.7249C74.7232 9.89277 75.568 9.22819 75.5834 8.08027C75.5987 7.15892 74.969 6.50944 74.0167 6.50944ZM69.5625 22.3537H72.7419L74.8922 11.237H71.6974M83.002 11.2219H80.7902L80.8977 10.7084C81.0821 9.636 81.7272 8.69954 82.8023 8.69954C83.3706 8.69954 83.816 8.86569 83.816 8.86569L84.4304 6.40371C84.4304 6.40371 83.8928 6.13184 82.6948 6.13184C81.5736 6.13184 80.437 6.44902 79.5768 7.17402C78.4863 8.08027 77.9794 9.39433 77.7337 10.7235L77.6415 11.237H76.1517L75.6755 13.6084H77.1654L75.4758 22.3688H78.6553L80.3448 13.6084H82.5412L83.002 11.2219ZM90.6664 11.237C90.6664 11.237 88.6696 16.1761 87.7941 18.8798H87.7634C87.702 18.0037 86.9801 11.237 86.9801 11.237H83.6317L85.5517 21.4172C85.5824 21.6438 85.567 21.7797 85.4749 21.9308C85.1062 22.6407 84.4765 23.3204 83.7393 23.8188C83.1402 24.2417 82.4644 24.5287 81.9268 24.71L82.8177 27.3683C83.4628 27.2324 84.8144 26.7037 85.9357 25.6615C87.3794 24.3324 88.7311 22.2631 90.1134 19.4537L93.9994 11.2219H90.6664V11.237Z" fill="black"/>
</g>
<defs>
<clipPath id="clip0_42_4456">
<rect width="94" height="29" fill="white"/>
</clipPath>
</defs>
</svg>
