<svg width="86" height="17" viewBox="0 0 86 17" fill="none" xmlns="http://www.w3.org/2000/svg">
<g clip-path="url(#clip0_42_4409)">
<path d="M2.81768 11.2111C2.81768 12.1884 3.03631 12.9387 3.32207 13.3926C3.69673 13.9872 4.25555 14.2391 4.82525 14.2391C5.56006 14.2391 6.23228 14.0602 7.52772 12.3023C8.56553 10.8934 9.7884 8.91565 10.6112 7.67581L12.0046 5.57529C12.9726 4.11649 14.0929 2.49482 15.3775 1.3956C16.4262 0.498429 17.5574 0 18.6959 0C20.6073 0 22.428 1.08675 23.8215 3.12497C25.3464 5.35723 26.0867 8.1689 26.0867 11.0705C26.0867 12.7954 25.7401 14.0628 25.1505 15.0641C24.5808 16.0325 23.4704 17 21.6025 17V14.2391C23.2019 14.2391 23.601 12.7972 23.601 11.147C23.601 8.7955 23.0422 6.18586 21.8112 4.3212C20.9376 2.99859 19.8054 2.19042 18.5599 2.19042C17.2127 2.19042 16.1286 3.18728 14.9103 4.96471C14.2626 5.90906 13.5976 7.0599 12.851 8.35848L12.0291 9.78702C10.3781 12.6592 9.95985 13.3134 9.13433 14.393C7.68738 16.2835 6.45181 17 4.82525 17C2.8957 17 1.67555 16.1803 0.919873 14.9449C0.302996 13.9382 0 12.6174 0 11.1123L2.81768 11.2111Z" fill="#0081FB"/>
<path d="M2.22168 3.3199C3.51349 1.36623 5.37773 0 7.51594 0C8.75423 0 9.98527 0.359581 11.2707 1.38937C12.6768 2.51529 14.1755 4.36927 16.0452 7.42482L16.7156 8.52136C18.334 11.1666 19.2548 12.5275 19.7936 13.1692C20.4867 13.9934 20.972 14.2391 21.6025 14.2391C23.2019 14.2391 23.601 12.7972 23.601 11.147L26.0867 11.0705C26.0867 12.7954 25.7401 14.0628 25.1505 15.0641C24.5808 16.0325 23.4704 17 21.6025 17C20.4413 17 19.4126 16.7526 18.275 15.6996C17.4005 14.8915 16.3781 13.4558 15.5916 12.1652L13.252 8.33089C12.0781 6.4066 11.0013 4.97183 10.3781 4.32209C9.70767 3.6234 8.84586 2.77963 7.47058 2.77963C6.35748 2.77963 5.41221 3.54597 4.62115 4.71817L2.22168 3.3199Z" fill="url(#paint0_linear_42_4409)"/>
<path d="M7.47057 2.77963C6.35747 2.77963 5.41219 3.54597 4.62114 4.71817C3.50259 6.37455 2.81768 8.84178 2.81768 11.2111C2.81768 12.1884 3.03631 12.9387 3.32207 13.3926L0.919873 14.9449C0.302996 13.9382 0 12.6174 0 11.1123C0 8.37539 0.765654 5.52277 2.22167 3.3199C3.51348 1.36623 5.37772 0 7.51593 0L7.47057 2.77963Z" fill="url(#paint1_linear_42_4409)"/>
<path d="M31.5645 0.537109H34.8239L40.3658 10.374L45.9087 0.537109H49.0974V16.7005H46.4385V4.31271L41.5778 12.891H39.0831L34.2234 4.31271V16.7005H31.5645V0.537109ZM57.4289 6.56365C55.522 6.56365 54.3735 7.97172 54.0986 9.71533H60.5704C60.437 7.9192 59.3811 6.56365 57.4289 6.56365ZM51.4624 10.7086C51.4624 7.03983 53.8791 4.36967 57.4751 4.36967C61.0122 4.36967 63.1241 7.00601 63.1241 10.9044V11.6209H54.0986C54.4189 13.5176 55.7016 14.7957 57.77 14.7957C59.4201 14.7957 60.4516 14.3018 61.4295 13.3984L62.842 15.0957C61.5111 16.2964 59.8184 16.9888 57.6756 16.9888C53.7829 16.9888 51.4624 14.2039 51.4624 10.7086ZM66.3482 6.79507H63.9006V4.65894H66.3482V1.12632H68.9137V4.65894H72.6322V6.79507H68.9137V12.2093C68.9137 14.0579 69.516 14.7148 70.9965 14.7148C71.6724 14.7148 72.0597 14.6578 72.6322 14.5643V16.6773C71.9191 16.8749 71.2388 16.9657 70.5021 16.9657C67.7325 16.9657 66.3482 15.4811 66.3482 12.5092V6.79507ZM83.4348 8.87245C82.9195 7.59612 81.7701 6.65622 80.081 6.65622C77.8856 6.65622 76.4804 8.18444 76.4804 10.6739C76.4804 13.1011 77.774 14.7032 79.9757 14.7032C81.7066 14.7032 82.9422 13.7152 83.4348 12.4861V8.87245ZM86.0003 16.7005H83.482V15.0147C82.778 16.0071 81.4971 16.9888 79.4224 16.9888C76.0858 16.9888 73.8559 14.2484 73.8559 10.6739C73.8559 7.06564 76.1393 4.36967 79.5639 4.36967C81.2567 4.36967 82.5848 5.03365 83.482 6.20585V4.65894H86.0003V16.7005Z" fill="#192830"/>
</g>
<defs>
<linearGradient id="paint0_linear_42_4409" x1="5.53377" y1="10.4136" x2="23.494" y2="11.3381" gradientUnits="userSpaceOnUse">
<stop stop-color="#0064E1"/>
<stop offset="0.4" stop-color="#0064E1"/>
<stop offset="0.83" stop-color="#0073EE"/>
<stop offset="1" stop-color="#0082FB"/>
</linearGradient>
<linearGradient id="paint1_linear_42_4409" x1="4.08228" y1="12.3717" x2="4.08228" y2="5.87435" gradientUnits="userSpaceOnUse">
<stop stop-color="#0082FB"/>
<stop offset="1" stop-color="#0064E0"/>
</linearGradient>
<clipPath id="clip0_42_4409">
<rect width="86" height="17" fill="white"/>
</clipPath>
</defs>
</svg>
