<svg width="94" height="28" viewBox="0 0 94 28" fill="none" xmlns="http://www.w3.org/2000/svg">
<path d="M4.85679 0.0353217C5.14621 -0.00340351 5.43749 0.00981946 5.72876 0.0069859C11.063 0.0069859 16.3981 0.00887546 21.7333 0.0060419C23.2501 -0.0704641 24.7577 0.585032 25.8279 1.66367C26.8544 2.73948 27.4565 4.22332 27.4518 5.72227C27.4509 11.2638 27.4518 16.8053 27.4509 22.3467C27.4053 23.5085 26.9921 24.6533 26.3174 25.5912C25.7712 26.2731 25.1132 26.8804 24.325 27.2592C23.7471 27.534 23.1292 27.7824 22.4824 27.79C16.6485 27.7834 10.8136 27.7928 4.9787 27.7853C4.54038 27.7994 4.12068 27.653 3.71122 27.5114C1.51127 26.734 -0.075404 24.4332 0.00276655 22.0634C0.00462776 16.6485 0.00369716 11.2326 0.00276655 5.81766C-0.052139 4.1062 0.723983 2.39378 2.02031 1.30192C2.82715 0.621868 3.82289 0.194001 4.85679 0.0353217ZM7.51459 6.88403C7.03998 7.06348 6.54118 7.18155 6.09263 7.42524C5.29789 7.87105 4.59343 8.49915 4.11603 9.28877C2.85879 11.1986 3.01513 13.9264 4.47431 15.6822C4.66322 15.8522 4.55527 16.1091 4.5227 16.3226C4.38125 16.9346 4.34961 17.5684 4.40917 18.1937C4.59808 19.9335 5.69061 21.5401 7.21307 22.3562C8.31212 22.9758 9.61961 23.092 10.8461 22.8965C11.3822 23.4235 11.9619 23.9279 12.6636 24.2131C14.4104 24.998 16.588 24.777 18.0955 23.5661C18.9573 22.9021 19.6003 21.9604 19.9446 20.9224C21.1851 20.6579 22.3409 19.942 23.0901 18.8983C23.9434 17.7705 24.3445 16.298 24.1398 14.8869C24.0272 13.796 23.5107 12.792 22.8332 11.9533C22.9551 11.4583 23.0789 10.9577 23.0789 10.4449C23.1385 8.82879 22.4275 7.20516 21.2168 6.15486C20.0573 5.12817 18.4436 4.66724 16.9248 4.90904C16.7741 4.91659 16.5814 4.97421 16.4782 4.82498C15.796 4.09014 14.9008 3.55838 13.9339 3.32225C13.2908 3.15507 12.6199 3.18151 11.9629 3.21268C9.93043 3.40348 8.14647 4.92982 7.51459 6.88403Z" fill="#10A37F"/>
<path d="M7.51454 6.88392C8.14642 4.92971 9.93039 3.40337 11.9628 3.21258C12.6198 3.18141 13.2908 3.15496 13.9338 3.32214C14.9007 3.55827 15.796 4.09003 16.4781 4.82487C16.5814 4.9741 16.774 4.91649 16.9248 4.90893C18.4435 4.66713 20.0572 5.12806 21.2167 6.15475C22.4275 7.20506 23.1384 8.82868 23.0789 10.4448C23.0789 10.9576 22.9551 11.4582 22.8332 11.9531C23.5107 12.7919 24.0272 13.7959 24.1398 14.8868C24.3445 16.2979 23.9434 17.7704 23.09 18.8982C22.3409 19.9419 21.1851 20.6578 19.9446 20.9223C19.6003 21.9603 18.9572 22.902 18.0955 23.566C16.5879 24.7769 14.4103 24.9979 12.6636 24.213C11.9619 23.9278 11.3821 23.4234 10.8461 22.8963C9.61957 23.0919 8.31207 22.9757 7.21303 22.3561C5.69056 21.54 4.59803 19.9334 4.40912 18.1936C4.34956 17.5683 4.3812 16.9345 4.52266 16.3225C4.55523 16.109 4.66318 15.8521 4.47426 15.6821C3.01508 13.9262 2.85874 11.1985 4.11598 9.28866C4.59338 8.49905 5.29785 7.87094 6.09258 7.42513C6.54113 7.18144 7.03994 7.06338 7.51454 6.88392ZM10.0653 5.50492C9.20545 6.26148 8.63685 7.39112 8.64802 8.55761C8.65174 10.2313 8.64709 11.9059 8.64988 13.5796C9.22313 13.9659 9.81034 14.3428 10.4404 14.6242C10.4422 12.6946 10.4376 10.7649 10.4404 8.83529C10.4413 8.53588 10.5269 8.19397 10.8098 8.04568C11.7134 7.5158 12.6142 6.97932 13.5225 6.45794C14.0502 6.11697 14.6337 5.86573 15.1241 5.46809C14.7667 5.2074 14.3898 4.96655 13.9739 4.81353C13.2573 4.52546 12.4626 4.55285 11.7134 4.66619C11.1169 4.82676 10.552 5.11956 10.0653 5.50492ZM15.6648 6.83764C14.2549 7.66881 12.8264 8.46977 11.4361 9.33306C11.4445 10.0197 11.4342 10.7073 11.4445 11.394C13.1996 10.4419 14.8933 9.37367 16.6326 8.39137C16.9667 8.1968 17.3203 8.42348 17.6097 8.5935C18.934 9.37367 20.2498 10.168 21.588 10.9227C21.8356 10.1293 21.6076 9.26883 21.2865 8.53116C20.6798 7.18805 19.2708 6.29926 17.8275 6.26243C17.07 6.23315 16.3134 6.44472 15.6648 6.83764ZM8.51494 9.12432C8.51494 10.5836 8.47399 12.0467 8.54379 13.5041C8.6201 13.2793 8.62289 13.0412 8.61824 12.807C8.60521 11.2892 8.66291 9.76659 8.57078 8.25064C8.49354 8.53494 8.51029 8.83152 8.51494 9.12432ZM4.75345 13.0261C4.96097 14.1539 5.6766 15.1655 6.66211 15.7274C7.85421 16.3999 9.01467 17.1272 10.204 17.8054C10.445 17.9329 10.6693 18.1142 10.9382 18.1766C11.1262 18.1539 11.2807 18.0273 11.4445 17.9405C11.8484 17.6883 12.283 17.4871 12.6729 17.2103C12.6087 16.995 12.3267 16.961 12.1657 16.8354C10.6981 15.9626 9.21475 15.1182 7.74812 14.2436C7.50989 14.0934 7.22699 13.8885 7.25584 13.5664C7.23722 11.8748 7.27445 10.1831 7.23908 8.49149C5.44861 9.08276 4.32723 11.172 4.75345 13.0261ZM14.9193 10.5269C14.8412 10.5458 14.7314 10.6818 14.8449 10.7291C16.4995 11.7359 18.1951 12.671 19.846 13.6826C20.0581 13.8139 20.2154 14.0528 20.2042 14.3116C20.2108 15.9806 20.2014 17.6505 20.207 19.3204C20.7235 19.2326 21.1395 18.8793 21.5276 18.5478C22.1064 17.9735 22.5549 17.2406 22.7094 16.4264C22.983 15.2202 22.6098 13.9206 21.8421 12.977C21.3033 12.3262 20.529 11.9579 19.819 11.5394C18.7264 10.8858 17.6227 10.2511 16.52 9.61641C15.9784 9.90449 15.461 10.2379 14.9193 10.5269ZM11.4473 12.5718C11.4287 13.3747 11.4426 14.1784 11.437 14.9822C11.4435 15.1192 11.4194 15.3081 11.585 15.3562C12.1871 15.6821 12.7827 16.0221 13.3624 16.3886C13.5216 16.4764 13.7142 16.6285 13.8938 16.4972C14.5881 16.093 15.2841 15.6887 15.9747 15.2769C16.0547 14.3815 15.9793 13.471 16.0063 12.5699C15.2488 12.1288 14.495 11.6792 13.7319 11.2476C12.9614 11.6717 12.2066 12.1269 11.4473 12.5718ZM16.962 13.1914C16.9695 15.1097 16.9592 17.028 16.9676 18.9464C17.0113 19.3043 16.9276 19.6935 16.5674 19.8446C15.5857 20.4189 14.5983 20.9837 13.623 21.5683C13.1959 21.8234 12.7417 22.0349 12.3537 22.3523C13.6426 23.4867 15.7085 23.5613 17.0839 22.5412C18.182 21.8073 18.8595 20.4708 18.8018 19.1372C18.8046 17.5645 18.8083 15.9919 18.8 14.4193C18.84 14.1794 18.585 14.0887 18.4277 13.9839C17.9392 13.7194 17.4841 13.386 16.962 13.1914ZM15.5736 16.6644C14.0269 17.5806 12.4691 18.4788 10.9205 19.3912C10.6609 19.5527 10.3166 19.5187 10.0625 19.3601C8.81925 18.6441 7.59458 17.8942 6.35036 17.1792C6.18099 17.0791 5.99859 17.0073 5.81526 16.9412C5.68405 17.8479 5.859 18.7915 6.31779 19.5811C6.86964 20.5313 7.81234 21.2585 8.88439 21.4796C9.83733 21.6864 10.8666 21.5438 11.7125 21.046C13.0647 20.2545 14.4159 19.4621 15.7718 18.6772C15.8741 18.6101 16.0268 18.5346 16.0035 18.3844C16.01 17.744 16.0128 17.1027 15.9933 16.4623C15.8509 16.5246 15.7085 16.5879 15.5736 16.6644Z" fill="#FDFEFF"/>
<path d="M10.0654 5.50499C10.5521 5.11963 11.117 4.82683 11.7135 4.66626C12.4627 4.55292 13.2574 4.52553 13.9739 4.81361C14.3899 4.96662 14.7668 5.20747 15.1242 5.46816C14.6337 5.8658 14.0503 6.11704 13.5226 6.45801C12.6143 6.97939 11.7135 7.51587 10.8099 8.04575C10.527 8.19404 10.4414 8.53595 10.4405 8.83537C10.4377 10.765 10.4423 12.6947 10.4405 14.6243C9.81043 14.3429 9.22322 13.966 8.64997 13.5797C8.64718 11.906 8.65183 10.2314 8.64811 8.55768C8.63694 7.3912 9.20554 6.26155 10.0654 5.50499Z" fill="#11A37D"/>
<path d="M14.9196 10.5277C15.4612 10.2387 15.9787 9.90527 16.5203 9.61719C17.623 10.2519 18.7267 10.8866 19.8193 11.5402C20.5293 11.9586 21.3036 12.327 21.8424 12.9778C22.6101 13.9214 22.9833 15.221 22.7097 16.4272C22.5552 17.2413 22.1067 17.9743 21.5278 18.5486C21.1398 18.8801 20.7238 19.2333 20.2073 19.3212C20.2017 17.6513 20.211 15.9814 20.2045 14.3124C20.2157 14.0536 20.0584 13.8146 19.8462 13.6833C18.1953 12.6718 16.4998 11.7367 14.8452 10.7298C14.7316 10.6826 14.8415 10.5466 14.9196 10.5277Z" fill="#11A37D"/>
<path d="M15.6647 6.83766C16.3133 6.44474 17.0699 6.23317 17.8274 6.26245C19.2708 6.29929 20.6797 7.18808 21.2865 8.53118C21.6075 9.26885 21.8355 10.1293 21.588 10.9227C20.2498 10.168 18.9339 9.37369 17.6097 8.59352C17.3202 8.42351 16.9666 8.19682 16.6325 8.39139C14.8932 9.37369 13.1995 10.4419 11.4444 11.394C11.4342 10.7074 11.4444 10.0197 11.436 9.33308C12.8264 8.46979 14.2548 7.66884 15.6647 6.83766Z" fill="#10A37D"/>
<path d="M35.3348 8.21332C36.324 7.63811 37.505 7.55877 38.6152 7.691C39.6575 7.86763 40.683 8.41545 41.2674 9.33069C41.527 9.7425 41.7225 10.1968 41.8323 10.6738C41.1529 10.8485 40.4708 11.01 39.7887 11.1706C39.6584 10.6162 39.355 10.0769 38.8618 9.77839C37.9582 9.20601 36.6795 9.34958 35.923 10.1118C35.3897 10.6152 35.2138 11.3727 35.1087 12.0764C35.0491 13.104 35.0324 14.1704 35.4139 15.1433C35.6977 15.8271 36.3073 16.3862 37.0341 16.527C37.6232 16.628 38.2774 16.5921 38.778 16.2257C39.3988 15.8139 39.6714 15.0677 39.8575 14.3735C40.4252 14.5444 40.9882 14.7277 41.5559 14.8986C41.6573 14.9468 41.8137 14.9458 41.8593 15.0705C41.5457 16.1983 40.9091 17.3043 39.8613 17.8691C38.7818 18.4264 37.4892 18.553 36.3222 18.2271C35.1077 17.9135 34.0534 17.0332 33.5099 15.8875C32.8715 14.5586 32.8194 13.0086 33.0707 11.573C33.2987 10.193 34.0999 8.8811 35.3348 8.21332Z" fill="#090A0A"/>
<path d="M67.0804 8.31175C68.1971 7.59675 69.5707 7.57503 70.8438 7.68742C71.6757 7.81399 72.5067 8.12096 73.1284 8.71506C73.6793 9.22982 74.0218 9.93727 74.193 10.6712C73.5137 10.8204 72.8278 10.9432 72.1447 11.0735C71.927 10.4898 71.5492 9.93821 70.9722 9.67753C70.0025 9.24116 68.7927 9.38 67.9496 10.0346C67.2665 10.5786 66.9473 11.4712 66.8952 12.3278C66.8543 13.2176 66.8636 14.1479 67.2414 14.9716C67.6443 15.9236 68.6289 16.5905 69.6535 16.5716C70.5674 16.6273 71.4542 16.2552 72.1857 15.7253C72.2518 15.2851 72.2006 14.8327 72.2099 14.3888C71.4282 14.385 70.6474 14.3841 69.8666 14.3897C69.8676 13.8089 69.8638 13.228 69.8694 12.648C71.3547 12.6509 72.839 12.6443 74.3242 12.6518C74.3512 13.9335 74.3279 15.2162 74.3363 16.4988C74.3819 16.8474 74.0432 17.0306 73.8068 17.2016C72.6287 17.9591 71.243 18.3964 69.8462 18.4049C68.588 18.3709 67.2786 18.0091 66.3368 17.1251C65.463 16.3373 64.9977 15.185 64.7967 14.0374C64.7334 13.3772 64.7418 12.7104 64.7837 12.0492C64.9633 10.5484 65.7608 9.07303 67.0804 8.31175Z" fill="#080A09"/>
<path d="M43.5774 7.82048C44.2446 7.81859 44.9119 7.81292 45.5791 7.82425C45.5903 9.07669 45.5698 10.3291 45.5903 11.5825C46.1412 10.9884 46.868 10.5095 47.6953 10.4925C48.5449 10.4538 49.5128 10.7636 49.9697 11.5438C50.2526 12.0075 50.355 12.5601 50.3522 13.1003C50.3699 14.7995 50.3522 16.4997 50.3615 18.1998C49.7045 18.2196 49.0465 18.2177 48.3895 18.2026C48.3867 16.6555 48.3923 15.1093 48.3858 13.5622C48.3821 13.1079 48.3393 12.5705 47.9475 12.2777C47.6786 12.0236 47.2886 12.0718 46.9518 12.0746C46.3366 12.0784 45.808 12.5941 45.688 13.191C45.5773 13.6198 45.5866 14.0666 45.581 14.5067C45.5773 15.7365 45.5894 16.9672 45.5763 18.1979C44.9109 18.2243 44.2446 18.2092 43.5792 18.2083C43.5737 14.7457 43.5774 11.2831 43.5774 7.82048Z" fill="#080A09"/>
<path d="M76.2219 7.82184C77.2298 7.8105 78.2376 7.81806 79.2455 7.81617C80.1649 7.819 81.0936 7.79161 82.0019 7.9654C82.9967 8.23459 83.7989 9.12338 83.9738 10.1548C84.1125 10.7971 84.0818 11.4705 83.9227 12.1062C83.6323 13.1348 82.7492 13.9593 81.7078 14.1473C80.5948 14.3589 79.453 14.2568 78.3269 14.2757C78.286 14.475 78.2786 14.679 78.2823 14.8831C78.2888 15.991 78.2776 17.0989 78.2869 18.2068C77.5992 18.2097 76.9096 18.2285 76.2229 18.1936C76.2275 14.7367 76.2266 11.2788 76.2219 7.82184ZM78.2869 9.57581C78.2795 10.5487 78.2869 11.5215 78.2823 12.4944C79.1003 12.5104 79.9267 12.5444 80.74 12.432C81.4165 12.364 81.9712 11.7038 81.9135 11.0124C81.9591 10.3503 81.4314 9.76755 80.807 9.65326C79.9732 9.51819 79.1263 9.5862 78.2869 9.57581Z" fill="#080A09"/>
<path d="M85.0421 7.81826C87.7455 7.81637 90.4489 7.82204 93.1523 7.81543C93.1579 8.40198 93.169 8.98947 93.1458 9.57507C92.15 9.57318 91.1543 9.56751 90.1586 9.57885C90.152 12.4521 90.1669 15.3253 90.1511 18.1985C89.4513 18.224 88.7515 18.208 88.0526 18.2099C88.0489 15.3329 88.0507 12.4558 88.0517 9.57885C87.0475 9.56468 86.0434 9.58357 85.0393 9.56846C85.0449 8.98474 85.0421 8.40198 85.0421 7.81826Z" fill="#080A09"/>
<path d="M60.3971 9.18758C61.0345 8.7701 61.7036 8.40457 62.3551 8.00977C62.3839 8.89667 62.3579 9.78546 62.3672 10.6724C62.8148 10.6771 63.2624 10.6761 63.71 10.6743C63.7398 11.207 63.7203 11.7416 63.724 12.2752C63.2764 12.2837 62.8297 12.2809 62.383 12.2799C62.3541 13.5276 62.3718 14.7772 62.3727 16.0259C62.3541 16.3111 62.4751 16.6389 62.7748 16.7154C63.1005 16.7551 63.4094 16.6191 63.7156 16.5255C63.7463 17.0469 63.8329 17.5626 63.8775 18.0821C63.0074 18.4136 61.9577 18.5468 61.1164 18.0698C60.5423 17.7393 60.4231 17.0072 60.411 16.3961C60.3943 15.0247 60.4055 13.6523 60.4045 12.2809C60.0984 12.2799 59.7931 12.2809 59.4879 12.2743C59.4916 11.7416 59.4702 11.2079 59.5 10.6752C59.795 10.6752 60.09 10.6733 60.385 10.6828C60.4166 10.185 60.4045 9.68534 60.3971 9.18758Z" fill="#090B0A"/>
<path d="M53.3859 10.8341C54.1955 10.4572 55.1103 10.4666 55.9823 10.5101C56.4857 10.5819 57.0134 10.6565 57.4526 10.9389C57.8062 11.1627 58.1282 11.4839 58.2399 11.9042C58.4409 12.725 58.3553 13.5769 58.3693 14.4128C58.3823 15.6842 58.2213 17.0244 58.7927 18.207C58.1692 18.2079 57.5447 18.223 56.9222 18.2041C56.7128 18.0228 56.7147 17.6809 56.6039 17.4315C55.9181 18.0332 55.0377 18.4459 54.1155 18.3902C53.4306 18.3288 52.7028 18.0908 52.2785 17.508C51.5023 16.5342 51.7666 14.852 52.9094 14.291C54.014 13.7517 55.2778 13.7469 56.4262 13.337C56.4262 13.082 56.4355 12.8223 56.3703 12.5757C56.2475 12.3188 55.9934 12.0997 55.704 12.0922C55.3299 12.0695 54.9512 12.0506 54.5798 12.1054C54.1871 12.2187 53.948 12.6003 53.8298 12.9743C53.2295 12.929 52.6479 12.7665 52.0588 12.656C52.2161 11.8947 52.687 11.1826 53.3859 10.8341ZM54.5147 15.1137C54.1843 15.2053 53.8782 15.4698 53.8251 15.8277C53.7591 16.2329 53.9917 16.6466 54.3453 16.8327C54.9074 17.1614 55.6165 16.8894 56.0614 16.4775C56.562 16.0025 56.3796 15.2468 56.469 14.6301C55.8185 14.7954 55.1559 14.9106 54.5147 15.1137Z" fill="#090B0A"/>
<path d="M8.51511 9.12368C8.51046 8.83088 8.4937 8.5343 8.57094 8.25C8.66307 9.76595 8.60538 11.2885 8.61841 12.8064C8.62306 13.0406 8.62027 13.2786 8.54396 13.5034C8.47416 12.046 8.51511 10.583 8.51511 9.12368Z" fill="#CBF7ED"/>
<path d="M4.75356 13.0258C4.32735 11.1718 5.44872 9.08248 7.2392 8.49121C7.27456 10.1828 7.23734 11.8745 7.25595 13.5661C7.2271 13.8882 7.51001 14.0932 7.74824 14.2433C9.21487 15.118 10.6983 15.9624 12.1658 16.8351C12.3268 16.9607 12.6088 16.9947 12.673 17.2101C12.2831 17.4868 11.8485 17.688 11.4446 17.9402C11.2808 18.0271 11.1263 18.1536 10.9383 18.1763C10.6694 18.114 10.4451 17.9326 10.2041 17.8051C9.01479 17.1269 7.85433 16.3997 6.66223 15.7272C5.67672 15.1652 4.96109 14.1536 4.75356 13.0258Z" fill="#11A37E"/>
<path d="M11.4472 12.5723C12.2066 12.1274 12.9613 11.6721 13.7319 11.248C14.495 11.6797 15.2488 12.1293 16.0063 12.5704C15.9793 13.4714 16.0547 14.382 15.9746 15.2774C15.2841 15.6892 14.588 16.0934 13.8938 16.4977C13.7142 16.629 13.5216 16.4769 13.3624 16.3891C12.7827 16.0226 12.1871 15.6826 11.585 15.3567C11.4193 15.3085 11.4435 15.1196 11.437 14.9827C11.4426 14.1789 11.4286 13.3751 11.4472 12.5723Z" fill="#10A37E"/>
<path d="M16.9621 13.1914C17.4842 13.386 17.9392 13.7194 18.4278 13.9839C18.5851 14.0887 18.8401 14.1794 18.8 14.4193C18.8084 15.9919 18.8047 17.5645 18.8019 19.1371C18.8596 20.4708 18.1821 21.8073 17.084 22.5412C15.7086 23.5613 13.6426 23.4867 12.3538 22.3523C12.7418 22.0349 13.196 21.8234 13.6231 21.5683C14.5984 20.9837 15.5857 20.4189 16.5675 19.8446C16.9277 19.6935 17.0114 19.3043 16.9677 18.9464C16.9593 17.028 16.9695 15.1097 16.9621 13.1914Z" fill="#12A37F"/>
<path d="M15.5736 16.664C15.7086 16.5875 15.851 16.5243 15.9933 16.4619C16.0129 17.1023 16.0101 17.7436 16.0036 18.384C16.0268 18.5342 15.8742 18.6097 15.7719 18.6768C14.416 19.4617 13.0647 20.2542 11.7126 21.0457C10.8667 21.5434 9.83741 21.686 8.88447 21.4792C7.81242 21.2582 6.86972 20.5309 6.31787 19.5807C5.85909 18.7911 5.68413 17.8475 5.81535 16.9408C5.99868 17.0069 6.18107 17.0787 6.35044 17.1788C7.59466 17.8938 8.81933 18.6438 10.0626 19.3597C10.3167 19.5184 10.661 19.5524 10.9206 19.3909C12.4692 18.4785 14.027 17.5802 15.5736 16.664Z" fill="#12A37E"/>
</svg>
